<?xml version="1.0" encoding="utf-8"?>
<svg version="1.1" xmlns:xlink="http://www.w3.org/1999/xlink" width="142px" height="145px" xmlns="http://www.w3.org/2000/svg">
  <g transform="matrix(1 0 0 1 -45 -47 )">
    <path d="M 45 47  L 187 47  L 187 192  L 45 192  L 45 47  " fill-rule="nonzero" fill="#cccccc" stroke="none" />
    <path d="M 55 57  L 177 57  L 177 182  L 55 182  L 55 57  " fill-rule="nonzero" fill="#ffffff" stroke="none" />
    <path d="M 129.49 90.05  C 123.526 90.05  118.84 85.364  118.84 79.4  C 118.84 73.436  123.526 68.75  129.49 68.75  C 135.454 68.75  140.14 73.436  140.14 79.4  C 140.14 85.364  135.454 90.05  129.49 90.05  " fill-rule="nonzero" fill="#cccccc" stroke="none" />
    <path d="M 59 179  L 59 114.1  L 87.75 84.6  L 128 108.2  L 151 102.3  L 174 108.2  L 174 179  L 59 179  " fill-rule="nonzero" fill="#169bd5" stroke="none" />
  </g>
</svg>