<?xml version="1.0" encoding="utf-8"?>
<svg version="1.1" xmlns:xlink="http://www.w3.org/1999/xlink" width="81px" height="80px" xmlns="http://www.w3.org/2000/svg">
  <g transform="matrix(1 0 0 1 -60 -24 )">
    <path d="M 60 24  L 141 24  L 141 104  L 60 104  L 60 24  " fill-rule="nonzero" fill="#cccccc" stroke="none" />
    <path d="M 66 30  L 135 30  L 135 98  L 66 98  L 66 30  " fill-rule="nonzero" fill="#ffffff" stroke="none" />
    <path d="M 108.12 48  C 104.76 48  102.12 45.36  102.12 42  C 102.12 38.64  104.76 36  108.12 36  C 111.48 36  114.12 38.64  114.12 42  C 114.12 45.36  111.48 48  108.12 48  " fill-rule="nonzero" fill="#cccccc" stroke="none" />
    <path d="M 68 96  L 68 60.8  L 84.25 44.8  L 107 58.0740740740741  L 120 54.4  L 133 58.0740740740741  L 133 96  L 68 96  " fill-rule="nonzero" fill="#169bd5" stroke="none" />
  </g>
</svg>