<?xml version="1.0" encoding="utf-8"?>
<svg version="1.1" xmlns:xlink="http://www.w3.org/1999/xlink" width="49px" height="51px" xmlns="http://www.w3.org/2000/svg">
  <g transform="matrix(1 0 0 1 -18 -38 )">
    <path d="M 18 38  L 67 38  L 67 89  L 18 89  L 18 38  " fill-rule="nonzero" fill="#cccccc" stroke="none" />
    <path d="M 21 41  L 64 41  L 64 86  L 21 86  L 21 41  " fill-rule="nonzero" fill="#ffffff" stroke="none" />
    <path d="M 47.155 53  C 45.097 53  43.48 51.383  43.48 49.325  C 43.48 47.267  45.097 45.65  47.155 45.65  C 49.213 45.65  50.83 47.267  50.83 49.325  C 50.83 51.383  49.213 53  47.155 53  " fill-rule="nonzero" fill="#cccccc" stroke="none" />
    <path d="M 22 85  L 22 61.35  L 32.25 50.6  L 46.6 59.2  L 54.8 57.05  L 63 59.2  L 63 85  L 22 85  " fill-rule="nonzero" fill="#169bd5" stroke="none" />
  </g>
</svg>