<?xml version="1.0" encoding="utf-8"?>
<svg version="1.1" xmlns:xlink="http://www.w3.org/1999/xlink" width="104px" height="80px" xmlns="http://www.w3.org/2000/svg">
  <g transform="matrix(1 0 0 1 -32 -221 )">
    <path d="M 32 221  L 136 221  L 136 301  L 32 301  L 32 221  " fill-rule="nonzero" fill="#cccccc" stroke="none" />
    <path d="M 38 227  L 130 227  L 130 295  L 38 295  L 38 227  " fill-rule="nonzero" fill="#ffffff" stroke="none" />
    <path d="M 92.08 245  C 88.72 245  86.08 242.36  86.08 239  C 86.08 235.64  88.72 233  92.08 233  C 95.44 233  98.08 235.64  98.08 239  C 98.08 242.36  95.44 245  92.08 245  " fill-rule="nonzero" fill="#cccccc" stroke="none" />
    <path d="M 40 293  L 40 257.8  L 62 241.8  L 92.8 263.461538461538  L 110.4 251.4  L 128 263.461538461538  L 128 293  L 40 293  " fill-rule="nonzero" fill="#169bd5" stroke="none" />
  </g>
</svg>