<?xml version="1.0" encoding="utf-8"?>
<svg version="1.1" xmlns:xlink="http://www.w3.org/1999/xlink" width="22px" height="50px" xmlns="http://www.w3.org/2000/svg">
  <g transform="matrix(1 0 0 1 -74 -329 )">
    <path d="M 21.6219931271478 3.00601202404809  C 21.8739977090493 3.34001336005343  22 3.72411489645958  22 4.15831663326653  C 22 4.59251837007348  21.8739977090493 4.97661990647962  21.6219931271478 5.31062124248497  L 6.76632302405498 25  L 21.6219931271478 44.689378757515  C 21.8739977090493 45.0233800935204  22 45.4074816299265  22 45.8416833667335  C 22 46.2758851035404  21.8739977090493 46.6599866399466  21.6219931271478 46.9939879759519  L 19.7319587628866 49.498997995992  C 19.4799541809851 49.8329993319973  19.1901489117984 50  18.8625429553265 50  C 18.5349369988545 50  18.2451317296678 49.8329993319973  17.9931271477663 49.498997995992  L 0.378006872852234 26.1523046092184  C 0.126002290950745 25.8183032732131  0 25.4342017368069  0 25  C 0 24.5657982631931  0.126002290950745 24.1816967267869  0.378006872852234 23.8476953907816  L 17.9931271477663 0.501002004008017  C 18.2451317296678 0.16700066800267  18.5349369988545 0  18.8625429553265 0  C 19.1901489117984 0  19.4799541809851 0.16700066800267  19.7319587628866 0.501002004008017  L 21.6219931271478 3.00601202404809  Z " fill-rule="nonzero" fill="#e18e00" stroke="none" transform="matrix(1 0 0 1 74 329 )" />
  </g>
</svg>