<?xml version="1.0" encoding="utf-8"?>
<svg version="1.1" xmlns:xlink="http://www.w3.org/1999/xlink" width="22px" height="50px" xmlns="http://www.w3.org/2000/svg">
  <g transform="matrix(1 0 0 1 -804 -314 )">
    <path d="M 21.6219931271478 23.8476953907816  C 21.8739977090493 24.1816967267869  22 24.5657982631931  22 25  C 22 25.4342017368069  21.8739977090493 25.8183032732131  21.6219931271478 26.1523046092184  L 4.00687285223368 49.498997995992  C 3.75486827033219 49.8329993319973  3.46506300114548 50  3.13745704467354 50  C 2.8098510882016 50  2.52004581901489 49.8329993319973  2.2680412371134 49.498997995992  L 0.378006872852234 46.9939879759519  C 0.126002290950745 46.6599866399466  0 46.2758851035404  0 45.8416833667335  C 0 45.4074816299265  0.126002290950745 45.0233800935204  0.378006872852234 44.689378757515  L 15.233676975945 25  L 0.378006872852234 5.31062124248497  C 0.126002290950745 4.97661990647962  0 4.59251837007348  0 4.15831663326653  C 0 3.72411489645958  0.126002290950745 3.34001336005343  0.378006872852234 3.00601202404809  L 2.2680412371134 0.501002004008017  C 2.52004581901489 0.16700066800267  2.8098510882016 0  3.13745704467354 0  C 3.46506300114548 0  3.75486827033219 0.16700066800267  4.00687285223368 0.501002004008017  L 21.6219931271478 23.8476953907816  Z " fill-rule="nonzero" fill="#e18e00" stroke="none" transform="matrix(1 0 0 1 804 314 )" />
  </g>
</svg>