<?xml version="1.0" encoding="utf-8"?>
<svg version="1.1" xmlns:xlink="http://www.w3.org/1999/xlink" width="31px" height="30px" xmlns="http://www.w3.org/2000/svg">
  <g transform="matrix(1 0 0 1 -104 -1339 )">
    <path d="M 5.8125 0  L 25.1875 0  C 26.7886284722222 0  28.1576605902778 0.550130208333331  29.2945963541667 1.650390625  C 30.4315321180556 2.75065104166666  31 4.07552083333333  31 5.625  L 31 24.375  C 31 25.9244791666667  30.4315321180556 27.2493489583333  29.2945963541667 28.349609375  C 28.1576605902778 29.4498697916667  26.7886284722222 30  25.1875 30  L 21 30  L 21 18.37890625  L 25.4095052083333 18.37890625  L 26.0149739583333 13.84765625  L 21.3932291666667 13.84765625  L 21.3932291666667 10.95703125  C 21.3932291666667 10.2278645833333  21.5513237847222 9.68098958333333  21.8675130208333 9.31640625  C 22.1837022569444 8.95182291666667  22.7992621527778 8.76953125  23.7141927083333 8.76953125  L 26.1764322916667 8.75  L 26.1764322916667 4.70703125  C 25.3287760416667 4.58984375  24.1312934027778 4.53125  22.583984375 4.53125  C 20.7541232638889 4.53125  19.2909071180556 5.05208333333333  18.1943359375 6.09375  C 17.0977647569444 7.13541666666667  16.5494791666667 8.60677083333333  16.5494791666667 10.5078125  L 16.5494791666667 13.84765625  L 12.5130208333333 13.84765625  L 12.5130208333333 18.37890625  L 16 18.37890625  L 16 30  L 5.8125 30  C 4.21137152777778 30  2.84233940972222 29.4498697916667  1.70540364583333 28.349609375  C 0.568467881944444 27.2493489583333  0 25.9244791666667  0 24.375  L 0 5.625  C 0 4.07552083333333  0.568467881944444 2.75065104166666  1.70540364583333 1.650390625  C 2.84233940972222 0.550130208333331  4.21137152777778 0  5.8125 0  Z " fill-rule="nonzero" fill="#e18e00" stroke="none" transform="matrix(1 0 0 1 104 1339 )" />
  </g>
</svg>