<?xml version="1.0" encoding="utf-8"?>
<svg version="1.1" xmlns:xlink="http://www.w3.org/1999/xlink" width="38px" height="40px" xmlns="http://www.w3.org/2000/svg">
  <g transform="matrix(1 0 0 1 -713 -1519 )">
    <path d="M 7.125 0  L 30.875 0  C 32.8376736111111 0  34.5158420138889 0.733506944444442  35.9095052083333 2.20052083333333  C 37.3031684027778 3.66753472222222  38 5.43402777777777  38 7.5  L 38 32.5  C 38 34.5659722222222  37.3031684027778 36.3324652777778  35.9095052083333 37.7994791666667  C 34.5158420138889 39.2664930555556  32.8376736111111 40  30.875 40  L 26 40  L 26 24.5052083333333  L 31.1471354166667 24.5052083333333  L 31.8893229166667 18.4635416666667  L 26.2239583333333 18.4635416666667  L 26.2239583333333 14.609375  C 26.2239583333333 13.6371527777778  26.4177517361111 12.9079861111111  26.8053385416667 12.421875  C 27.1929253472222 11.9357638888889  27.9474826388889 11.6927083333333  29.0690104166667 11.6927083333333  L 32.0872395833333 11.6666666666667  L 32.0872395833333 6.27604166666667  C 31.0481770833333 6.11979166666667  29.5802951388889 6.04166666666667  27.68359375 6.04166666666667  C 25.4405381944445 6.04166666666667  23.6469184027778 6.73611111111111  22.302734375 8.125  C 20.9585503472222 9.51388888888889  20.2864583333333 11.4756944444444  20.2864583333333 14.0104166666667  L 20.2864583333333 18.4635416666667  L 15.3385416666667 18.4635416666667  L 15.3385416666667 24.5052083333333  L 20 24.5052083333333  L 20 40  L 7.125 40  C 5.16232638888889 40  3.48415798611111 39.2664930555556  2.09049479166667 37.7994791666667  C 0.696831597222222 36.3324652777778  0 34.5659722222222  0 32.5  L 0 7.5  C 0 5.43402777777777  0.696831597222222 3.66753472222222  2.09049479166667 2.20052083333333  C 3.48415798611111 0.733506944444442  5.16232638888889 0  7.125 0  Z " fill-rule="nonzero" fill="#e18e00" stroke="none" transform="matrix(1 0 0 1 713 1519 )" />
  </g>
</svg>