<?xml version="1.0" encoding="utf-8"?>
<svg version="1.1" xmlns:xlink="http://www.w3.org/1999/xlink" width="38px" height="40px" xmlns="http://www.w3.org/2000/svg">
  <g transform="matrix(1 0 0 1 -762 -1519 )">
    <path d="M 23.4778645833333 24.7135416666667  C 24.71484375 23.4114583333333  25.3333333333333 21.8402777777778  25.3333333333333 20  C 25.3333333333333 18.1597222222222  24.71484375 16.5885416666667  23.4778645833333 15.2864583333333  C 22.2408854166667 13.984375  20.7482638888889 13.3333333333333  19 13.3333333333333  C 17.2517361111111 13.3333333333333  15.7591145833333 13.984375  14.5221354166667 15.2864583333333  C 13.28515625 16.5885416666667  12.6666666666667 18.1597222222222  12.6666666666667 20  C 12.6666666666667 21.8402777777778  13.28515625 23.4114583333333  14.5221354166667 24.7135416666667  C 15.7591145833333 26.015625  17.2517361111111 26.6666666666667  19 26.6666666666667  C 20.7482638888889 26.6666666666667  22.2408854166667 26.015625  23.4778645833333 24.7135416666667  Z M 25.90234375 12.734375  C 27.7990451388889 14.7309027777778  28.7473958333333 17.1527777777778  28.7473958333333 20  C 28.7473958333333 22.8472222222222  27.7990451388889 25.2690972222222  25.90234375 27.265625  C 24.0056423611111 29.2621527777778  21.7048611111111 30.2604166666667  19 30.2604166666667  C 16.2951388888889 30.2604166666667  13.9943576388889 29.2621527777778  12.09765625 27.265625  C 10.2009548611111 25.2690972222222  9.25260416666667 22.8472222222222  9.25260416666667 20  C 9.25260416666667 17.1527777777778  10.2009548611111 14.7309027777778  12.09765625 12.734375  C 13.9943576388889 10.7378472222222  16.2951388888889 9.73958333333334  19 9.73958333333334  C 21.7048611111111 9.73958333333334  24.0056423611111 10.7378472222222  25.90234375 12.734375  Z M 30.7513020833333 7.63020833333333  C 31.1966145833333 8.09895833333334  31.4192708333333 8.66319444444444  31.4192708333333 9.32291666666666  C 31.4192708333333 9.98263888888889  31.1966145833333 10.546875  30.7513020833333 11.015625  C 30.3059895833333 11.484375  29.7699652777778 11.71875  29.1432291666667 11.71875  C 28.5164930555556 11.71875  27.98046875 11.484375  27.53515625 11.015625  C 27.08984375 10.546875  26.8671875 9.98263888888889  26.8671875 9.32291666666666  C 26.8671875 8.66319444444444  27.08984375 8.09895833333334  27.53515625 7.63020833333333  C 27.98046875 7.16145833333333  28.5164930555556 6.92708333333333  29.1432291666667 6.92708333333333  C 29.7699652777778 6.92708333333333  30.3059895833333 7.16145833333333  30.7513020833333 7.63020833333333  Z M 20.892578125 3.58072916666667  C 19.7463107638889 3.58940972222222  19.1154513888889 3.59375  19 3.59375  C 18.8845486111111 3.59375  18.2536892361111 3.58940972222222  17.107421875 3.58072916666667  C 15.9611545138889 3.57204861111111  15.0911458333333 3.57204861111111  14.4973958333333 3.58072916666667  C 13.9036458333333 3.58940972222222  13.1078559027778 3.61545138888889  12.1100260416667 3.65885416666667  C 11.1121961805556 3.70225694444444  10.2628038194444 3.7890625  9.56184895833333 3.91927083333333  C 8.86089409722222 4.04947916666667  8.27126736111111 4.21006944444444  7.79296875 4.40104166666667  C 6.96831597222222 4.74826388888889  6.24262152777778 5.25173611111111  5.61588541666667 5.91145833333333  C 4.98914930555556 6.57118055555555  4.51085069444444 7.33506944444444  4.18098958333333 8.203125  C 3.99956597222222 8.70659722222222  3.84700520833333 9.32725694444444  3.72330729166667 10.0651041666667  C 3.599609375 10.8029513888889  3.51714409722222 11.6970486111111  3.47591145833333 12.7473958333333  C 3.43467881944444 13.7977430555556  3.40993923611111 14.6354166666667  3.40169270833333 15.2604166666667  C 3.39344618055556 15.8854166666667  3.39344618055556 16.8012152777778  3.40169270833333 18.0078125  C 3.40993923611111 19.2144097222222  3.4140625 19.8784722222222  3.4140625 20  C 3.4140625 20.1215277777778  3.40993923611111 20.7855902777778  3.40169270833333 21.9921875  C 3.39344618055556 23.1987847222222  3.39344618055556 24.1145833333333  3.40169270833333 24.7395833333333  C 3.40993923611111 25.3645833333333  3.43467881944444 26.2022569444444  3.47591145833333 27.2526041666667  C 3.51714409722222 28.3029513888889  3.599609375 29.1970486111111  3.72330729166667 29.9348958333333  C 3.84700520833333 30.6727430555556  3.99956597222222 31.2934027777778  4.18098958333333 31.796875  C 4.51085069444444 32.6649305555556  4.98914930555556 33.4288194444444  5.61588541666667 34.0885416666667  C 6.24262152777778 34.7482638888889  6.96831597222222 35.2517361111111  7.79296875 35.5989583333333  C 8.27126736111111 35.7899305555556  8.86089409722222 35.9505208333333  9.56184895833333 36.0807291666667  C 10.2628038194444 36.2109375  11.1121961805556 36.2977430555556  12.1100260416667 36.3411458333333  C 13.1078559027778 36.3845486111111  13.9036458333333 36.4105902777778  14.4973958333333 36.4192708333333  C 15.0911458333333 36.4279513888889  15.9611545138889 36.4279513888889  17.107421875 36.4192708333333  C 18.2536892361111 36.4105902777778  18.8845486111111 36.40625  19 36.40625  C 19.1154513888889 36.40625  19.7463107638889 36.4105902777778  20.892578125 36.4192708333333  C 22.0388454861111 36.4279513888889  22.9088541666667 36.4279513888889  23.5026041666667 36.4192708333333  C 24.0963541666667 36.4105902777778  24.8921440972222 36.3845486111111  25.8899739583333 36.3411458333333  C 26.8878038194445 36.2977430555556  27.7371961805556 36.2109375  28.4381510416667 36.0807291666667  C 29.1391059027778 35.9505208333333  29.7287326388889 35.7899305555556  30.20703125 35.5989583333333  C 31.0316840277778 35.2517361111111  31.7573784722222 34.7482638888889  32.3841145833333 34.0885416666667  C 33.0108506944445 33.4288194444444  33.4891493055556 32.6649305555556  33.8190104166667 31.796875  C 34.0004340277778 31.2934027777778  34.1529947916667 30.6727430555556  34.2766927083333 29.9348958333333  C 34.400390625 29.1970486111111  34.4828559027778 28.3029513888889  34.5240885416667 27.2526041666667  C 34.5653211805556 26.2022569444444  34.5900607638889 25.3645833333333  34.5983072916667 24.7395833333333  C 34.6065538194445 24.1145833333333  34.6065538194445 23.1987847222222  34.5983072916667 21.9921875  C 34.5900607638889 20.7855902777778  34.5859375 20.1215277777778  34.5859375 20  C 34.5859375 19.8784722222222  34.5900607638889 19.2144097222222  34.5983072916667 18.0078125  C 34.6065538194445 16.8012152777778  34.6065538194445 15.8854166666667  34.5983072916667 15.2604166666667  C 34.5900607638889 14.6354166666667  34.5653211805556 13.7977430555556  34.5240885416667 12.7473958333333  C 34.4828559027778 11.6970486111111  34.400390625 10.8029513888889  34.2766927083333 10.0651041666667  C 34.1529947916667 9.32725694444444  34.0004340277778 8.70659722222222  33.8190104166667 8.203125  C 33.4891493055556 7.33506944444444  33.0108506944445 6.57118055555555  32.3841145833333 5.91145833333333  C 31.7573784722222 5.25173611111111  31.0316840277778 4.74826388888889  30.20703125 4.40104166666667  C 29.7287326388889 4.21006944444444  29.1391059027778 4.04947916666667  28.4381510416667 3.91927083333333  C 27.7371961805556 3.7890625  26.8878038194445 3.70225694444444  25.8899739583333 3.65885416666667  C 24.8921440972222 3.61545138888889  24.0963541666667 3.58940972222222  23.5026041666667 3.58072916666667  C 22.9088541666667 3.57204861111111  22.0388454861111 3.57204861111111  20.892578125 3.58072916666667  Z M 37.8763020833333 11.7447916666667  C 37.9587673611111 13.2725694444444  38 16.0243055555556  38 20  C 38 23.9756944444444  37.9587673611111 26.7274305555556  37.8763020833333 28.2552083333333  C 37.7113715277778 31.8663194444444  36.6888020833333 34.6614583333333  34.80859375 36.640625  C 32.9283854166667 38.6197916666667  30.2730034722222 39.6961805555556  26.8424479166667 39.8697916666667  C 25.3910590277778 39.9565972222222  22.7769097222222 40  19 40  C 15.2230902777778 40  12.6089409722222 39.9565972222222  11.1575520833333 39.8697916666667  C 7.72699652777778 39.6961805555556  5.07161458333333 38.6197916666667  3.19140625 36.640625  C 1.31119791666667 34.6614583333333  0.288628472222222 31.8663194444444  0.123697916666667 28.2552083333333  C 0.0412326388888889 26.7274305555556  0 23.9756944444444  0 20  C 0 16.0243055555556  0.0412326388888889 13.2725694444444  0.123697916666667 11.7447916666667  C 0.288628472222222 8.13368055555555  1.31119791666667 5.33854166666667  3.19140625 3.359375  C 5.07161458333333 1.38020833333333  7.72699652777778 0.303819444444442  11.1575520833333 0.130208333333335  C 12.6089409722222 0.0434027777777724  15.2230902777778 0  19 0  C 22.7769097222222 0  25.3910590277778 0.0434027777777724  26.8424479166667 0.130208333333335  C 30.2730034722222 0.303819444444442  32.9283854166667 1.38020833333333  34.80859375 3.359375  C 36.6888020833333 5.33854166666667  37.7113715277778 8.13368055555555  37.8763020833333 11.7447916666667  Z " fill-rule="nonzero" fill="#e18e00" stroke="none" transform="matrix(1 0 0 1 762 1519 )" />
  </g>
</svg>