<?xml version="1.0" encoding="utf-8"?>
<svg version="1.1" xmlns:xlink="http://www.w3.org/1999/xlink" width="31px" height="30px" xmlns="http://www.w3.org/2000/svg">
  <g transform="matrix(1 0 0 1 -144 -1339 )">
    <path d="M 19.1529947916667 18.53515625  C 20.162109375 17.55859375  20.6666666666667 16.3802083333333  20.6666666666667 15  C 20.6666666666667 13.6197916666667  20.162109375 12.44140625  19.1529947916667 11.46484375  C 18.1438802083333 10.48828125  16.9262152777778 10  15.5 10  C 14.0737847222222 10  12.8561197916667 10.48828125  11.8470052083333 11.46484375  C 10.837890625 12.44140625  10.3333333333333 13.6197916666667  10.3333333333333 15  C 10.3333333333333 16.3802083333333  10.837890625 17.55859375  11.8470052083333 18.53515625  C 12.8561197916667 19.51171875  14.0737847222222 20  15.5 20  C 16.9262152777778 20  18.1438802083333 19.51171875  19.1529947916667 18.53515625  Z M 21.130859375 9.55078125  C 22.6781684027778 11.0481770833333  23.4518229166667 12.8645833333333  23.4518229166667 15  C 23.4518229166667 17.1354166666667  22.6781684027778 18.9518229166667  21.130859375 20.44921875  C 19.5835503472222 21.9466145833333  17.7065972222222 22.6953125  15.5 22.6953125  C 13.2934027777778 22.6953125  11.4164496527778 21.9466145833333  9.869140625 20.44921875  C 8.32183159722222 18.9518229166667  7.54817708333333 17.1354166666667  7.54817708333333 15  C 7.54817708333333 12.8645833333333  8.32183159722222 11.0481770833333  9.869140625 9.55078125  C 11.4164496527778 8.05338541666666  13.2934027777778 7.3046875  15.5 7.3046875  C 17.7065972222222 7.3046875  19.5835503472222 8.05338541666666  21.130859375 9.55078125  Z M 25.0865885416667 5.72265625  C 25.4498697916667 6.07421875  25.6315104166667 6.49739583333333  25.6315104166667 6.9921875  C 25.6315104166667 7.48697916666667  25.4498697916667 7.91015625  25.0865885416667 8.26171875  C 24.7233072916667 8.61328125  24.2860243055556 8.7890625  23.7747395833333 8.7890625  C 23.2634548611111 8.7890625  22.826171875 8.61328125  22.462890625 8.26171875  C 22.099609375 7.91015625  21.91796875 7.48697916666667  21.91796875 6.9921875  C 21.91796875 6.49739583333333  22.099609375 6.07421875  22.462890625 5.72265625  C 22.826171875 5.37109375  23.2634548611111 5.1953125  23.7747395833333 5.1953125  C 24.2860243055556 5.1953125  24.7233072916667 5.37109375  25.0865885416667 5.72265625  Z M 17.0439453125 2.685546875  C 16.1088324652778 2.69205729166666  15.5941840277778 2.6953125  15.5 2.6953125  C 15.4058159722222 2.6953125  14.8911675347222 2.69205729166666  13.9560546875 2.685546875  C 13.0209418402778 2.67903645833333  12.3111979166667 2.67903645833333  11.8268229166667 2.685546875  C 11.3424479166667 2.69205729166666  10.6932508680556 2.71158854166667  9.87923177083333 2.744140625  C 9.06521267361111 2.77669270833333  8.37228732638889 2.841796875  7.80045572916667 2.939453125  C 7.22862413194445 3.037109375  6.74761284722222 3.15755208333333  6.357421875 3.30078125  C 5.68467881944445 3.56119791666667  5.09266493055556 3.93880208333333  4.58138020833333 4.43359375  C 4.07009548611111 4.92838541666667  3.67990451388889 5.50130208333333  3.41080729166667 6.15234375  C 3.26280381944444 6.52994791666666  3.13834635416667 6.99544270833333  3.03743489583333 7.548828125  C 2.9365234375 8.10221354166667  2.86924913194444 8.77278645833333  2.83561197916667 9.560546875  C 2.80197482638889 10.3483072916667  2.78179253472222 10.9765625  2.77506510416667 11.4453125  C 2.76833767361111 11.9140625  2.76833767361111 12.6009114583333  2.77506510416667 13.505859375  C 2.78179253472222 14.4108072916667  2.78515625 14.9088541666667  2.78515625 15  C 2.78515625 15.0911458333333  2.78179253472222 15.5891927083333  2.77506510416667 16.494140625  C 2.76833767361111 17.3990885416667  2.76833767361111 18.0859375  2.77506510416667 18.5546875  C 2.78179253472222 19.0234375  2.80197482638889 19.6516927083333  2.83561197916667 20.439453125  C 2.86924913194444 21.2272135416667  2.9365234375 21.8977864583333  3.03743489583333 22.451171875  C 3.13834635416667 23.0045572916667  3.26280381944444 23.4700520833333  3.41080729166667 23.84765625  C 3.67990451388889 24.4986979166667  4.07009548611111 25.0716145833333  4.58138020833333 25.56640625  C 5.09266493055556 26.0611979166667  5.68467881944445 26.4388020833333  6.357421875 26.69921875  C 6.74761284722222 26.8424479166667  7.22862413194445 26.962890625  7.80045572916667 27.060546875  C 8.37228732638889 27.158203125  9.06521267361111 27.2233072916667  9.87923177083333 27.255859375  C 10.6932508680556 27.2884114583333  11.3424479166667 27.3079427083333  11.8268229166667 27.314453125  C 12.3111979166667 27.3209635416667  13.0209418402778 27.3209635416667  13.9560546875 27.314453125  C 14.8911675347222 27.3079427083333  15.4058159722222 27.3046875  15.5 27.3046875  C 15.5941840277778 27.3046875  16.1088324652778 27.3079427083333  17.0439453125 27.314453125  C 17.9790581597222 27.3209635416667  18.6888020833333 27.3209635416667  19.1731770833333 27.314453125  C 19.6575520833333 27.3079427083333  20.3067491319444 27.2884114583333  21.1207682291667 27.255859375  C 21.9347873263889 27.2233072916667  22.6277126736111 27.158203125  23.1995442708333 27.060546875  C 23.7713758680556 26.962890625  24.2523871527778 26.8424479166667  24.642578125 26.69921875  C 25.3153211805556 26.4388020833333  25.9073350694444 26.0611979166667  26.4186197916667 25.56640625  C 26.9299045138889 25.0716145833333  27.3200954861111 24.4986979166667  27.5891927083333 23.84765625  C 27.7371961805556 23.4700520833333  27.8616536458333 23.0045572916667  27.9625651041667 22.451171875  C 28.0634765625 21.8977864583333  28.1307508680556 21.2272135416667  28.1643880208333 20.439453125  C 28.1980251736111 19.6516927083333  28.2182074652778 19.0234375  28.2249348958333 18.5546875  C 28.2316623263889 18.0859375  28.2316623263889 17.3990885416667  28.2249348958333 16.494140625  C 28.2182074652778 15.5891927083333  28.21484375 15.0911458333333  28.21484375 15  C 28.21484375 14.9088541666667  28.2182074652778 14.4108072916667  28.2249348958333 13.505859375  C 28.2316623263889 12.6009114583333  28.2316623263889 11.9140625  28.2249348958333 11.4453125  C 28.2182074652778 10.9765625  28.1980251736111 10.3483072916667  28.1643880208333 9.560546875  C 28.1307508680556 8.77278645833333  28.0634765625 8.10221354166667  27.9625651041667 7.548828125  C 27.8616536458333 6.99544270833333  27.7371961805556 6.52994791666666  27.5891927083333 6.15234375  C 27.3200954861111 5.50130208333333  26.9299045138889 4.92838541666667  26.4186197916667 4.43359375  C 25.9073350694444 3.93880208333333  25.3153211805556 3.56119791666667  24.642578125 3.30078125  C 24.2523871527778 3.15755208333333  23.7713758680556 3.037109375  23.1995442708333 2.939453125  C 22.6277126736111 2.841796875  21.9347873263889 2.77669270833333  21.1207682291667 2.744140625  C 20.3067491319444 2.71158854166667  19.6575520833333 2.69205729166666  19.1731770833333 2.685546875  C 18.6888020833333 2.67903645833333  17.9790581597222 2.67903645833333  17.0439453125 2.685546875  Z M 30.8990885416667 8.80859375  C 30.9663628472222 9.95442708333333  31 12.0182291666667  31 15  C 31 17.9817708333333  30.9663628472222 20.0455729166667  30.8990885416667 21.19140625  C 30.7645399305556 23.8997395833333  29.9303385416667 25.99609375  28.396484375 27.48046875  C 26.8626302083333 28.96484375  24.6963975694444 29.7721354166667  21.8977864583333 29.90234375  C 20.7137586805556 29.9674479166667  18.5811631944444 30  15.5 30  C 12.4188368055556 30  10.2862413194444 29.9674479166667  9.10221354166667 29.90234375  C 6.30360243055556 29.7721354166667  4.13736979166667 28.96484375  2.603515625 27.48046875  C 1.06966145833333 25.99609375  0.235460069444444 23.8997395833333  0.100911458333333 21.19140625  C 0.0336371527777778 20.0455729166667  0 17.9817708333333  0 15  C 0 12.0182291666667  0.0336371527777778 9.95442708333333  0.100911458333333 8.80859375  C 0.235460069444444 6.10026041666667  1.06966145833333 4.00390625  2.603515625 2.51953125  C 4.13736979166667 1.03515625  6.30360243055556 0.227864583333331  9.10221354166667 0.0976562500000011  C 10.2862413194444 0.0325520833333293  12.4188368055556 0  15.5 0  C 18.5811631944444 0  20.7137586805556 0.0325520833333293  21.8977864583333 0.0976562500000011  C 24.6963975694444 0.227864583333331  26.8626302083333 1.03515625  28.396484375 2.51953125  C 29.9303385416667 4.00390625  30.7645399305556 6.10026041666667  30.8990885416667 8.80859375  Z " fill-rule="nonzero" fill="#e18e00" stroke="none" transform="matrix(1 0 0 1 144 1339 )" />
  </g>
</svg>