<?xml version="1.0" encoding="utf-8"?>
<svg version="1.1" xmlns:xlink="http://www.w3.org/1999/xlink" width="49px" height="50px" xmlns="http://www.w3.org/2000/svg">
  <g transform="matrix(1 0 0 1 -1077 -1445 )">
    <path d="M 25.0046511627907 30  L 25.0046511627907 22  L 48.6093023255814 22  C 48.8697674418605 22.8732638888889  49 24.2621527777778  49 25.5859375  C 49 30.2951388888889  48.0124031007752 34.4997829861111  46.0372093023256 38.1998697916667  C 44.062015503876 41.8999565972222  41.2457364341085 44.7916666666667  37.5883720930233 46.875  C 33.931007751938 48.9583333333333  29.7364341085271 50  25.0046511627907 50  C 21.5968992248062 50  18.3519379844961 49.3435329861111  15.2697674418605 48.0305989583333  C 12.1875968992248 46.7176649305556  9.52868217054264 44.9435763888889  7.29302325581395 42.7083333333333  C 5.05736434108527 40.4730902777778  3.28294573643411 37.8146701388889  1.96976744186047 34.7330729166667  C 0.656589147286822 31.6514756944444  0 28.4071180555556  0 25  C 0 21.5928819444444  0.656589147286822 18.3485243055556  1.96976744186047 15.2669270833333  C 3.28294573643411 12.1853298611111  5.05736434108527 9.52690972222222  7.29302325581395 7.29166666666667  C 9.52868217054264 5.05642361111111  12.1875968992248 3.28233506944444  15.2697674418605 1.96940104166667  C 18.3519379844961 0.656467013888884  21.5968992248062 0  25.0046511627907 0  C 31.5162790697674 0  37.1054263565891 2.18098958333333  41.7720930232558 6.54296875  L 34.9674418604651 13.0859375  C 32.2976744186047 10.5034722222222  28.9767441860465 9.21223958333333  25.0046511627907 9.21223958333333  C 22.2046511627907 9.21223958333333  19.6162790697674 9.91753472222222  17.2395348837209 11.328125  C 14.8627906976744 12.7387152777778  12.9798449612403 14.6538628472222  11.5906976744186 17.0735677083333  C 10.2015503875969 19.4932725694444  9.50697674418605 22.1354166666667  9.50697674418605 25  C 9.50697674418605 27.8645833333333  10.2015503875969 30.5067274305555  11.5906976744186 32.9264322916667  C 12.9798449612403 35.3461371527778  14.8627906976744 37.2612847222222  17.2395348837209 38.671875  C 19.6162790697674 40.0824652777778  22.2046511627907 40.7877604166667  25.0046511627907 40.7877604166667  C 26.893023255814 40.7877604166667  28.6294573643411 40.52734375  30.2139534883721 40.0065104166667  C 31.7984496124031 39.4856770833333  33.1007751937985 38.8346354166667  34.1209302325581 38.0533854166667  C 35.1410852713178 37.2721354166667  36.031007751938 36.3823784722222  36.7906976744186 35.3841145833333  C 37.5503875968992 34.3858506944444  38.1093023255814 33.4418402777778  38.4674418604651 32.5520833333333  C 38.8255813953488 31.6623263888889  39.0697674418605 30.8159722222222  39.2 30  L 25.0046511627907 30  Z " fill-rule="nonzero" fill="#e18e00" stroke="none" transform="matrix(1 0 0 1 1077 1445 )" />
  </g>
</svg>