<?xml version="1.0" encoding="utf-8"?>
<svg version="1.1" xmlns:xlink="http://www.w3.org/1999/xlink" width="37px" height="40px" xmlns="http://www.w3.org/2000/svg">
  <g transform="matrix(1 0 0 1 -812 -1519 )">
    <path d="M 18.8810631229236 24  L 18.8810631229236 17.1354166666667  L 36.7049833887043 17.1354166666667  C 36.9016611295681 18.2986111111111  37 19.4097222222222  37 20.46875  C 37 24.2361111111111  36.2542635658915 27.5998263888889  34.7627906976744 30.5598958333333  C 33.2713178294574 33.5199652777778  31.1447397563677 35.8333333333333  28.3830564784053 37.5  C 25.621373200443 39.1666666666667  22.4540420819491 40  18.8810631229236 40  C 16.3078626799557 40  13.8575858250277 39.4748263888889  11.5302325581395 38.4244791666667  C 9.20287929125139 37.3741319444444  7.19512735326689 35.9548611111111  5.50697674418605 34.1666666666667  C 3.8188261351052 32.3784722222222  2.47895902547065 30.2517361111111  1.48737541528239 27.7864583333333  C 0.495791805094131 25.3211805555556  0 22.7256944444444  0 20  C 0 17.2743055555556  0.495791805094131 14.6788194444444  1.48737541528239 12.2135416666667  C 2.47895902547065 9.74826388888889  3.8188261351052 7.62152777777777  5.50697674418605 5.83333333333333  C 7.19512735326689 4.04513888888889  9.20287929125139 2.62586805555555  11.5302325581395 1.57552083333333  C 13.8575858250277 0.525173611111107  16.3078626799557 0  18.8810631229236 0  C 23.7980066445183 0  28.0183831672204 1.74479166666667  31.5421926910299 5.234375  L 26.4039867109635 10.46875  C 24.3880398671096 8.40277777777777  21.8803986710963 7.36979166666667  18.8810631229236 7.36979166666667  C 16.7667774086379 7.36979166666667  14.812292358804 7.93402777777777  13.0176079734219 9.0625  C 11.2229235880399 10.1909722222222  9.80110741971207 11.7230902777778  8.75215946843854 13.6588541666667  C 7.70321151716501 15.5946180555556  7.17873754152824 17.7083333333333  7.17873754152824 20  C 7.17873754152824 22.2916666666667  7.70321151716501 24.4053819444444  8.75215946843854 26.3411458333333  C 9.80110741971207 28.2769097222222  11.2229235880399 29.8090277777778  13.0176079734219 30.9375  C 14.812292358804 32.0659722222222  16.7667774086379 32.6302083333333  18.8810631229236 32.6302083333333  C 20.306976744186 32.6302083333333  21.618161683278 32.421875  22.8146179401993 32.0052083333333  C 24.0110741971207 31.5885416666667  24.9944629014396 31.0677083333333  25.7647840531561 30.4427083333333  C 26.5351052048727 29.8177083333333  27.2070874861573 29.1059027777778  27.78073089701 28.3072916666667  C 28.3543743078627 27.5086805555556  28.7764119601329 26.7534722222222  29.0468438538206 26.0416666666667  C 29.3172757475083 25.3298611111111  29.5016611295681 24.6527777777778  29.6 24  L 18.8810631229236 24  Z " fill-rule="nonzero" fill="#e18e00" stroke="none" transform="matrix(1 0 0 1 812 1519 )" />
  </g>
</svg>