<?xml version="1.0" encoding="utf-8"?>
<svg version="1.1" xmlns:xlink="http://www.w3.org/1999/xlink" width="30px" height="30px" xmlns="http://www.w3.org/2000/svg">
  <g transform="matrix(1 0 0 1 -185 -1339 )">
    <path d="M 15.3089700996678 18.0078125  L 15.3089700996678 13  L 29.7607973421927 13  C 29.9202657807309 13.7239583333333  30 14.5572916666667  30 15.3515625  C 30 18.1770833333333  29.3953488372093 20.6998697916667  28.1860465116279 22.919921875  C 26.9767441860465 25.1399739583333  25.2524916943522 26.875  23.0132890365449 28.125  C 20.7740863787375 29.375  18.2059800664452 30  15.3089700996678 30  C 13.2225913621262 30  11.2358803986711 29.6061197916667  9.34883720930233 28.818359375  C 7.46179401993356 28.0305989583333  5.83388704318937 26.9661458333333  4.46511627906977 25.625  C 3.09634551495017 24.2838541666667  2.00996677740864 22.6888020833333  1.20598006644518 20.83984375  C 0.401993355481728 18.9908854166667  0 17.0442708333333  0 15  C 0 12.9557291666667  0.401993355481728 11.0091145833333  1.20598006644518 9.16015625  C 2.00996677740864 7.31119791666667  3.09634551495017 5.71614583333333  4.46511627906977 4.375  C 5.83388704318937 3.03385416666667  7.46179401993356 1.96940104166667  9.34883720930233 1.181640625  C 11.2358803986711 0.39388020833333  13.2225913621262 0  15.3089700996678 0  C 19.2956810631229 0  22.7176079734219 1.30859375  25.5747508305648 3.92578125  L 21.4086378737542 7.8515625  C 19.7740863787375 6.30208333333333  17.7408637873754 5.52734375  15.3089700996678 5.52734375  C 13.5946843853821 5.52734375  12.0099667774086 5.95052083333333  10.5548172757475 6.796875  C 9.09966777408638 7.64322916666666  7.9468438538206 8.79231770833333  7.09634551495017 10.244140625  C 6.24584717607973 11.6959635416667  5.82059800664452 13.28125  5.82059800664452 15  C 5.82059800664452 16.71875  6.24584717607973 18.3040364583333  7.09634551495017 19.755859375  C 7.9468438538206 21.2076822916667  9.09966777408638 22.3567708333333  10.5548172757475 23.203125  C 12.0099667774086 24.0494791666667  13.5946843853821 24.47265625  15.3089700996678 24.47265625  C 16.4651162790698 24.47265625  17.5282392026578 24.31640625  18.4983388704319 24.00390625  C 19.468438538206 23.69140625  20.265780730897 23.30078125  20.890365448505 22.83203125  C 21.514950166113 22.36328125  22.0598006644518 21.8294270833333  22.5249169435216 21.23046875  C 22.9900332225914 20.6315104166667  23.3322259136213 20.0651041666667  23.5514950166113 19.53125  C 23.7707641196013 18.9973958333333  23.9202657807309 18.4895833333333  24 18.0078125  L 15.3089700996678 18.0078125  Z " fill-rule="nonzero" fill="#e18e00" stroke="none" transform="matrix(1 0 0 1 185 1339 )" />
  </g>
</svg>