<?xml version="1.0" encoding="utf-8"?>
<svg version="1.1" xmlns:xlink="http://www.w3.org/1999/xlink" width="41px" height="42px" xmlns="http://www.w3.org/2000/svg">
  <g>
    <path d="M 40.4928385416667 34.2234375  C 40.8309461805556 34.6390625  41 35.13125  41 35.7  L 41 39.9  C 41 40.46875  40.8309461805556 40.9609375  40.4928385416667 41.3765625  C 40.1547309027778 41.7921875  39.7543402777778 42  39.2916666666667 42  L 1.70833333333333 42  C 1.24565972222222 42  0.845269097222222 41.7921875  0.507161458333333 41.3765625  C 0.169053819444444 40.9609375  0 40.46875  0 39.9  L 0 35.7  C 0 35.13125  0.169053819444444 34.6390625  0.507161458333333 34.2234375  C 0.845269097222222 33.8078125  1.24565972222222 33.6  1.70833333333333 33  L 39.2916666666667 33  C 39.7543402777778 33.6  40.1547309027778 33.8078125  40.4928385416667 34.2234375  Z M 40.4928385416667 17.4234375  C 40.8309461805556 17.8390625  41 18.33125  41 18.9  L 41 23.1  C 41 23.66875  40.8309461805556 24.1609375  40.4928385416667 24.5765625  C 40.1547309027778 24.9921875  39.7543402777778 25.2  39.2916666666667 25  L 1.70833333333333 25  C 1.24565972222222 25.2  0.845269097222222 24.9921875  0.507161458333333 24.5765625  C 0.169053819444444 24.1609375  0 23.66875  0 23.1  L 0 18.9  C 0 18.33125  0.169053819444444 17.8390625  0.507161458333333 17.4234375  C 0.845269097222222 17.0078125  1.24565972222222 16.8  1.70833333333333 17  L 39.2916666666667 17  C 39.7543402777778 16.8  40.1547309027778 17.0078125  40.4928385416667 17.4234375  Z M 40.4928385416667 0.623437500000002  C 40.8309461805556 1.0390625  41 1.53125  41 2.1  L 41 6.3  C 41 6.86875  40.8309461805556 7.3609375  40.4928385416667 7.7765625  C 40.1547309027778 8.1921875  39.7543402777778 8.4  39.2916666666667 9  L 1.70833333333333 9  C 1.24565972222222 8.4  0.845269097222222 8.1921875  0.507161458333333 7.7765625  C 0.169053819444444 7.3609375  0 6.86875  0 6.3  L 0 2.1  C 0 1.53125  0.169053819444444 1.0390625  0.507161458333333 0.623437500000002  C 0.845269097222222 0.207812499999998  1.24565972222222 0  1.70833333333333 0  L 39.2916666666667 0  C 39.7543402777778 0  40.1547309027778 0.207812499999998  40.4928385416667 0.623437500000002  Z " fill-rule="nonzero" fill="#e18e00" stroke="none" />
  </g>
</svg>