<?xml version="1.0" encoding="utf-8"?>
<svg version="1.1" xmlns:xlink="http://www.w3.org/1999/xlink" width="44px" height="42px" xmlns="http://www.w3.org/2000/svg">
  <g>
    <path d="M 43.4557291666667 34.2234375  C 43.8185763888889 34.6390625  44 35.13125  44 35.7  L 44 39.9  C 44 40.46875  43.8185763888889 40.9609375  43.4557291666667 41.3765625  C 43.0928819444445 41.7921875  42.6631944444445 42  42.1666666666667 42  L 1.83333333333333 42  C 1.33680555555556 42  0.907118055555556 41.7921875  0.544270833333333 41.3765625  C 0.181423611111111 40.9609375  0 40.46875  0 39.9  L 0 35.7  C 0 35.13125  0.181423611111111 34.6390625  0.544270833333333 34.2234375  C 0.907118055555556 33.8078125  1.33680555555556 33.6  1.83333333333333 33  L 42.1666666666667 33  C 42.6631944444445 33.6  43.0928819444445 33.8078125  43.4557291666667 34.2234375  Z M 43.4557291666667 17.4234375  C 43.8185763888889 17.8390625  44 18.33125  44 18.9  L 44 23.1  C 44 23.66875  43.8185763888889 24.1609375  43.4557291666667 24.5765625  C 43.0928819444445 24.9921875  42.6631944444445 25.2  42.1666666666667 25  L 1.83333333333333 25  C 1.33680555555556 25.2  0.907118055555556 24.9921875  0.544270833333333 24.5765625  C 0.181423611111111 24.1609375  0 23.66875  0 23.1  L 0 18.9  C 0 18.33125  0.181423611111111 17.8390625  0.544270833333333 17.4234375  C 0.907118055555556 17.0078125  1.33680555555556 16.8  1.83333333333333 17  L 42.1666666666667 17  C 42.6631944444445 16.8  43.0928819444445 17.0078125  43.4557291666667 17.4234375  Z M 43.4557291666667 0.623437500000002  C 43.8185763888889 1.0390625  44 1.53125  44 2.1  L 44 6.3  C 44 6.86875  43.8185763888889 7.3609375  43.4557291666667 7.7765625  C 43.0928819444445 8.1921875  42.6631944444445 8.4  42.1666666666667 9  L 1.83333333333333 9  C 1.33680555555556 8.4  0.907118055555556 8.1921875  0.544270833333333 7.7765625  C 0.181423611111111 7.3609375  0 6.86875  0 6.3  L 0 2.1  C 0 1.53125  0.181423611111111 1.0390625  0.544270833333333 0.623437500000002  C 0.907118055555556 0.207812499999998  1.33680555555556 0  1.83333333333333 0  L 42.1666666666667 0  C 42.6631944444445 0  43.0928819444445 0.207812499999998  43.4557291666667 0.623437500000002  Z " fill-rule="nonzero" fill="#e18e00" stroke="none" />
  </g>
</svg>