<?xml version="1.0" encoding="utf-8"?>
<svg version="1.1" xmlns:xlink="http://www.w3.org/1999/xlink" width="43px" height="42px" xmlns="http://www.w3.org/2000/svg">
  <g>
    <path d="M 41.986531986532 31.3939393939394  C 42.662177328844 32.053872053872  43 32.8552188552189  43 33.7979797979798  C 43 34.7407407407407  42.662177328844 35.5420875420875  41.986531986532 36.2020202020202  L 37.0639730639731 41.010101010101  C 36.3883277216611 41.6700336700337  35.5679012345679 42  34.6026936026936 42  C 33.6374859708193 42  32.8170594837262 41.6700336700337  32.1414141414141 41.010101010101  L 21.5 30.6161616161616  L 10.8585858585859 41.010101010101  C 10.1829405162739 41.6700336700337  9.3625140291807 42  8.3973063973064 42  C 7.4320987654321 42  6.61167227833895 41.6700336700337  5.93602693602694 41.010101010101  L 1.01346801346801 36.2020202020202  C 0.337822671156005 35.5420875420875  0 34.7407407407407  0 33.7979797979798  C 0 32.8552188552189  0.337822671156005 32.053872053872  1.01346801346801 31.3939393939394  L 11.6548821548822 21  L 1.01346801346801 10.6060606060606  C 0.337822671156005 9.94612794612794  0 9.14478114478115  0 8.2020202020202  C 0 7.25925925925926  0.337822671156005 6.45791245791245  1.01346801346801 5.7979797979798  L 5.93602693602694 0.98989898989899  C 6.61167227833895 0.329966329966328  7.4320987654321 0  8.3973063973064 0  C 9.3625140291807 0  10.1829405162739 0.329966329966328  10.8585858585859 0.98989898989899  L 21.5 11.3838383838384  L 32.1414141414141 0.98989898989899  C 32.8170594837262 0.329966329966328  33.6374859708193 0  34.6026936026936 0  C 35.5679012345679 0  36.3883277216611 0.329966329966328  37.0639730639731 0.98989898989899  L 41.986531986532 5.7979797979798  C 42.662177328844 6.45791245791245  43 7.25925925925926  43 8.2020202020202  C 43 9.14478114478115  42.662177328844 9.94612794612794  41.986531986532 10.6060606060606  L 31.3451178451178 21  L 41.986531986532 31.3939393939394  Z " fill-rule="nonzero" fill="#e18e00" stroke="none" />
  </g>
</svg>