<?xml version="1.0" encoding="utf-8"?>
<svg version="1.1" xmlns:xlink="http://www.w3.org/1999/xlink" width="427px" height="511px" xmlns="http://www.w3.org/2000/svg">
  <g transform="matrix(1 0 0 1 -71 -303 )">
    <path d="M 72.5 323  A 18.5 18.5 0 0 1 91 304.5 L 478 304.5  A 18.5 18.5 0 0 1 496.5 323 L 496.5 794  A 18.5 18.5 0 0 1 478 812.5 L 91 812.5  A 18.5 18.5 0 0 1 72.5 794 L 72.5 323  Z " fill-rule="nonzero" fill="#ffffff" stroke="none" fill-opacity="0" />
    <path d="M 72 323  A 19 19 0 0 1 91 304 L 478 304  A 19 19 0 0 1 497 323 L 497 794  A 19 19 0 0 1 478 813 L 91 813  A 19 19 0 0 1 72 794 L 72 323  Z " stroke-width="2" stroke="#9b0004" fill="none" />
  </g>
</svg>