<?xml version="1.0" encoding="utf-8"?>
<svg version="1.1" xmlns:xlink="http://www.w3.org/1999/xlink" width="129px" height="122px" xmlns="http://www.w3.org/2000/svg">
  <g transform="matrix(1 0 0 1 -53 -56 )">
    <path d="M 53 56  L 182 56  L 182 178  L 53 178  L 53 56  " fill-rule="nonzero" fill="#cccccc" stroke="none" />
    <path d="M 62 65  L 173 65  L 173 169  L 62 169  L 62 65  " fill-rule="nonzero" fill="#ffffff" stroke="none" />
    <path d="M 129.23 92.6  C 124.106 92.6  120.08 88.574  120.08 83.45  C 120.08 78.326  124.106 74.3  129.23 74.3  C 134.354 74.3  138.38 78.326  138.38 83.45  C 138.38 88.574  134.354 92.6  129.23 92.6  " fill-rule="nonzero" fill="#cccccc" stroke="none" />
    <path d="M 65 166  L 65 112.1  L 91.25 87.6  L 128 110.390697674419  L 149 102.3  L 170 110.390697674419  L 170 166  L 65 166  " fill-rule="nonzero" fill="#169bd5" stroke="none" />
  </g>
</svg>